<?xml version="1.0" encoding="UTF-8" standalone="no"?>
<!-- Created with Inkscape (http://www.inkscape.org/) -->

<svg
   xmlns:dc="http://purl.org/dc/elements/1.1/"
   xmlns:cc="http://creativecommons.org/ns#"
   xmlns:rdf="http://www.w3.org/1999/02/22-rdf-syntax-ns#"
   xmlns:svg="http://www.w3.org/2000/svg"
   xmlns="http://www.w3.org/2000/svg"
   xmlns:sodipodi="http://sodipodi.sourceforge.net/DTD/sodipodi-0.dtd"
   xmlns:inkscape="http://www.inkscape.org/namespaces/inkscape"
   width="16"
   height="16"
   viewBox="0 0 4.2333333 4.2333335"
   version="1.1"
   id="svg8"
   inkscape:version="0.92.1 r15371"
   sodipodi:docname="pv.svg"
   inkscape:export-filename="C:\Users\Paulo\Desktop\workspace\startbootstrap-freelancer-gh-pages\Portifólio\img\pvx.png"
   inkscape:export-xdpi="96"
   inkscape:export-ydpi="96">
  <defs
     id="defs2" />
  <sodipodi:namedview
     id="base"
     pagecolor="#ffffff"
     bordercolor="#666666"
     borderopacity="1.0"
     inkscape:pageopacity="0.0"
     inkscape:pageshadow="2"
     inkscape:zoom="11.313708"
     inkscape:cx="0.6670005"
     inkscape:cy="0.89578421"
     inkscape:document-units="mm"
     inkscape:current-layer="layer1"
     showgrid="false"
     inkscape:snap-bbox="true"
     inkscape:bbox-nodes="true"
     inkscape:snap-intersection-paths="true"
     inkscape:window-width="1366"
     inkscape:window-height="706"
     inkscape:window-x="-8"
     inkscape:window-y="-8"
     inkscape:window-maximized="1"
     showguides="true"
     inkscape:guide-bbox="true"
     inkscape:snap-bbox-edge-midpoints="true"
     inkscape:snap-smooth-nodes="true"
     inkscape:snap-nodes="false"
     inkscape:object-paths="true"
     units="px"
     inkscape:snap-page="true"
     inkscape:snap-object-midpoints="true" />
  <metadata
     id="metadata5">
    <rdf:RDF>
      <cc:Work
         rdf:about="">
        <dc:format>image/svg+xml</dc:format>
        <dc:type
           rdf:resource="http://purl.org/dc/dcmitype/StillImage" />
        <dc:title />
      </cc:Work>
    </rdf:RDF>
  </metadata>
  <g
     inkscape:label="Layer 1"
     inkscape:groupmode="layer"
     id="layer1"
     transform="translate(0,-292.76665)">
    <path
       style="color:#000000;font-style:normal;font-variant:normal;font-weight:normal;font-stretch:normal;font-size:medium;line-height:normal;font-family:sans-serif;font-variant-ligatures:normal;font-variant-position:normal;font-variant-caps:normal;font-variant-numeric:normal;font-variant-alternates:normal;font-feature-settings:normal;text-indent:0;text-align:start;text-decoration:none;text-decoration-line:none;text-decoration-style:solid;text-decoration-color:#000000;letter-spacing:normal;word-spacing:normal;text-transform:none;writing-mode:lr-tb;direction:ltr;text-orientation:mixed;dominant-baseline:auto;baseline-shift:baseline;text-anchor:start;white-space:normal;shape-padding:0;clip-rule:nonzero;display:inline;overflow:visible;visibility:visible;opacity:1;isolation:auto;mix-blend-mode:normal;color-interpolation:sRGB;color-interpolation-filters:linearRGB;solid-color:#000000;solid-opacity:1;vector-effect:none;fill:#80b3ff;fill-opacity:1;fill-rule:nonzero;stroke:none;stroke-width:0.13229167;stroke-linecap:round;stroke-linejoin:round;stroke-miterlimit:4;stroke-dasharray:none;stroke-dashoffset:0;stroke-opacity:1;paint-order:fill markers stroke;color-rendering:auto;image-rendering:auto;shape-rendering:auto;text-rendering:auto;enable-background:accumulate"
       d="m 2.1152344,293.30078 c -0.8715969,0 -1.58007815,0.71044 -1.58007815,1.58203 0,0.8716 0.70848125,1.58203 1.58007815,1.58203 0.8715969,0 1.5820312,-0.71043 1.5820312,-1.58203 0,-0.87159 -0.7104343,-1.58203 -1.5820312,-1.58203 z m 0,0.31641 c 0.7006494,0 1.265625,0.56497 1.265625,1.26562 0,0.70065 -0.5649756,1.26563 -1.265625,1.26563 -0.7006495,0 -1.26562502,-0.56498 -1.26562502,-1.26563 -10e-9,-0.70065 0.56497552,-1.26562 1.26562502,-1.26562 z"
       id="path4560-1-7-4"
       inkscape:connector-curvature="0" />
    <path
       inkscape:connector-curvature="0"
       style="opacity:1;fill:#80b3ff;fill-opacity:1;fill-rule:nonzero;stroke:none;stroke-width:6.78944254;stroke-linecap:round;stroke-linejoin:round;stroke-miterlimit:4;stroke-dasharray:none;stroke-dashoffset:0;stroke-opacity:1;paint-order:fill markers stroke"
       d="M 2.1166726,292.76665 A 0.70555946,0.70555946 0 0 1 2.8224169,293.4724 0.70555946,0.70555946 0 0 1 2.1166726,294.17758 0.70555946,0.70555946 0 0 1 1.4109283,293.4724 0.70555946,0.70555946 0 0 1 2.0550106,292.77 2.1166724,2.1166724 0 0 0 2.1089942e-8,294.88332 0.70555946,0.70555946 0 0 1 0.70574433,294.17758 a 0.70555946,0.70555946 0 0 1 0.70518397,0.70574 0.70555946,0.70555946 0 0 1 -0.70518397,0.70574 0.70555946,0.70555946 0 0 1 -0.70238123,-0.64408 2.1166724,2.1166724 0 0 0 2.1133095,2.055 0.70555946,0.70555946 0 0 1 -0.7057443,-0.70573 0.70555946,0.70555946 0 0 1 0.7057443,-0.70519 0.70555946,0.70555946 0 0 1 0.7057443,0.70519 0.70555946,0.70555946 0 0 1 -0.6440831,0.70238 2.1166724,2.1166724 0 0 0 2.0510868,-2.04101 0.70555946,0.70555946 0 0 1 -0.7018195,0.63344 0.70555946,0.70555946 0 0 1 -0.7051842,-0.70574 0.70555946,0.70555946 0 0 1 0.7051842,-0.70574 0.70555946,0.70555946 0 0 1 0.7040627,0.65416 2.1166724,2.1166724 0 0 0 -2.1149912,-2.06509 z"
       id="path4505-0-8-3-8-7" />
  </g>
</svg>
