<?xml version="1.0" encoding="UTF-8" standalone="no"?>
<!-- Created with Inkscape (http://www.inkscape.org/) -->

<svg
   xmlns:dc="http://purl.org/dc/elements/1.1/"
   xmlns:cc="http://creativecommons.org/ns#"
   xmlns:rdf="http://www.w3.org/1999/02/22-rdf-syntax-ns#"
   xmlns:svg="http://www.w3.org/2000/svg"
   xmlns="http://www.w3.org/2000/svg"
   xmlns:sodipodi="http://sodipodi.sourceforge.net/DTD/sodipodi-0.dtd"
   xmlns:inkscape="http://www.inkscape.org/namespaces/inkscape"
   width="400"
   height="400"
   viewBox="0 0 105.83334 105.83334"
   version="1.1"
   id="svg12619"
   inkscape:version="0.92.1 r15371"
   sodipodi:docname="eclipse.svg">
  <defs
     id="defs12613" />
  <sodipodi:namedview
     id="base"
     pagecolor="#ffffff"
     bordercolor="#666666"
     borderopacity="1.0"
     inkscape:pageopacity="0.0"
     inkscape:pageshadow="2"
     inkscape:zoom="0.49497475"
     inkscape:cx="-216.36914"
     inkscape:cy="37.505155"
     inkscape:document-units="mm"
     inkscape:current-layer="layer1"
     showgrid="false"
     units="px"
     inkscape:snap-page="true"
     inkscape:window-width="1366"
     inkscape:window-height="706"
     inkscape:window-x="-8"
     inkscape:window-y="-8"
     inkscape:window-maximized="1" />
  <metadata
     id="metadata12616">
    <rdf:RDF>
      <cc:Work
         rdf:about="">
        <dc:format>image/svg+xml</dc:format>
        <dc:type
           rdf:resource="http://purl.org/dc/dcmitype/StillImage" />
        <dc:title></dc:title>
      </cc:Work>
    </rdf:RDF>
  </metadata>
  <g
     inkscape:label="Layer 1"
     inkscape:groupmode="layer"
     id="layer1"
     transform="translate(0,-191.16665)">
    <rect
       style="opacity:1;fill:#f4d7e3;fill-opacity:1;fill-rule:nonzero;stroke:none;stroke-width:0.46109957;stroke-linecap:round;stroke-linejoin:round;stroke-miterlimit:4;stroke-dasharray:none;stroke-opacity:1"
       id="rect8586"
       width="105.83334"
       height="105.83334"
       x="8.5022492e-007"
       y="191.16664"
       ry="5.2697096" />
    <g
       id="g13831"
       transform="translate(0,3.6827402)">
      <path
         inkscape:connector-curvature="0"
         id="path8549"
         d="m 46.524336,198.55399 c -0.396294,0.0965 4.51655,3.23277 2.84825,3.68009 -7.76412,2.0818 -10.67554,-0.68579 -18.594384,0.69525 -1.877572,0.32745 5.351458,0.50429 4.004001,1.85221 -5.683023,5.68494 -9.58804,4.74378 -15.755442,9.89923 -1.4623,1.22236 4.886635,-2.23911 4.393661,-0.39806 -2.079169,7.76482 -5.93175,8.90224 -8.695151,16.45069 -0.655207,1.78975 3.112652,-4.38263 3.606244,-2.54175 2.081797,7.76412 -0.685792,10.67554 0.695246,18.59438 0.327457,1.87758 0.504304,-5.35145 1.852209,-4.004 5.684948,5.68303 4.743788,9.58804 9.899232,15.75544 1.222365,1.4623 -2.239112,-4.88663 -0.398057,-4.39367 7.764819,2.07919 8.902247,5.93176 16.450687,8.69516 1.789752,0.65521 -4.382338,-3.11264 -2.541453,-3.60625 4.610026,-1.23608 7.512003,-0.76379 10.764396,-0.46409 a 26.01919,26.01919 0 0 1 -15.907933,-23.97328 26.01919,26.01919 0 0 1 26.0191,-26.01911 26.01919,26.01919 0 0 1 1.483559,0.0742 c -0.865264,-1.80867 -1.924559,-3.71966 -3.76474,-5.92105 -1.222374,-1.4623 2.23881,4.88663 0.397757,4.39365 -7.764815,-2.07916 -8.902241,-5.93174 -16.450686,-8.69514 -0.167791,-0.0614 -0.265501,-0.0838 -0.306496,-0.0738 z m 20.124165,10.29639 c 1.558862,3.2585 2.478418,6.17986 6.134184,9.83439 1.34791,1.34745 1.525053,-5.88158 1.852502,-4.004 1.381057,7.91884 -1.386842,10.82997 0.694952,18.59408 0.493602,1.84089 4.261449,-4.3312 3.606243,-2.54146 -2.763391,7.54845 -6.615982,8.68588 -8.69515,16.4507 -0.492974,1.84105 5.856258,-1.62043 4.393955,-0.39806 -6.167395,5.15544 -10.072704,4.21428 -15.755725,9.89922 -1.347457,1.34791 5.881868,1.52476 4.004299,1.85221 -3.216953,0.56104 -5.60476,0.4362 -7.829986,0.23115 a 26.01919,26.01919 0 0 0 10.111167,2.04613 26.01919,26.01919 0 0 0 26.019403,-26.01941 26.01919,26.01919 0 0 0 -24.535844,-25.94495 z"
         style="opacity:1;fill:#c83771;fill-opacity:1;fill-rule:nonzero;stroke:none;stroke-width:0.46109957;stroke-linecap:round;stroke-linejoin:round;stroke-miterlimit:4;stroke-dasharray:none;stroke-opacity:1" />
      <g
         id="text8584"
         style="font-style:normal;font-weight:normal;font-size:17.46319389px;line-height:1.25;font-family:sans-serif;letter-spacing:0px;word-spacing:0px;fill:#c83771;fill-opacity:1;stroke:none;stroke-width:0.43657985"
         aria-label="eCLIPSE"
         transform="matrix(0.58091286,0,0,0.58091286,-6.37579,153.21072)">
        <path
           id="path11458"
           style="font-style:normal;font-variant:normal;font-weight:normal;font-stretch:normal;font-family:'MS Mincho';-inkscape-font-specification:'MS Mincho';fill:#c83771;fill-opacity:1;stroke-width:0.43657985"
           d="m 77.782989,217.90141 q 0.06821,-1.84182 -0.750372,-2.52398 -0.545725,-0.47751 -1.296096,-0.47751 -0.682156,0 -1.364312,0.54573 -0.955019,0.81859 -0.955019,2.45576 z m -4.365799,0.40929 q 0,2.04647 0.886803,2.72863 0.682156,0.54572 1.432528,0.54572 1.159665,0 1.773605,-0.54572 0.545725,-0.54573 0.886803,-1.2961 l 0.341078,0.20465 q -0.272862,0.75037 -1.023234,1.43253 -0.750371,0.75037 -2.046468,0.75037 -1.432527,0 -2.31933,-0.8868 -1.023234,-0.95502 -1.023234,-3.06971 0,-1.84182 1.159665,-2.79684 1.023234,-0.8868 2.251115,-0.8868 1.296096,0 2.251115,0.81859 0.955018,0.81859 0.955018,3.00148 z"
           inkscape:connector-curvature="0" />
        <path
           id="path11460"
           style="font-style:normal;font-variant:normal;font-weight:normal;font-stretch:normal;font-family:'MS Mincho';-inkscape-font-specification:'MS Mincho';fill:#c83771;fill-opacity:1;stroke-width:0.43657985"
           d="m 88.083545,218.85643 q -0.409294,1.43253 -1.364312,2.38755 -0.886803,0.8868 -2.1829,0.8868 -1.500743,0 -2.455761,-0.95502 -1.568959,-1.50074 -1.568959,-4.84331 0,-3.0697 1.773605,-4.77509 1.159666,-1.09145 2.660409,-1.09145 0.477509,0 0.955018,0.20465 0.341078,0.13643 0.818588,0.13643 0.477509,0 0.750371,-0.34108 l 0.613941,3.00149 -0.47751,0.13643 q -0.477509,-1.36431 -1.296096,-2.11469 -0.545725,-0.54572 -1.500743,-0.54572 -0.886803,0 -1.568959,0.61394 -1.500743,1.43253 -1.500743,4.70688 0,3.54721 1.364312,4.8433 0.477509,0.47751 1.500743,0.47751 1.09145,0 1.910037,-0.75037 0.61394,-0.54572 1.159665,-2.1829 z"
           inkscape:connector-curvature="0" />
        <path
           id="path11462"
           style="font-style:normal;font-variant:normal;font-weight:normal;font-stretch:normal;font-family:'MS Mincho';-inkscape-font-specification:'MS Mincho';fill:#c83771;fill-opacity:1;stroke-width:0.43657985"
           d="m 91.426109,221.17576 q 0,0.54572 0.61394,0.54572 h 1.841822 q 1.910036,0 2.660408,-2.38754 l 0.341078,0.13643 -0.61394,2.66041 H 89.24321 v -0.4093 h 0.477509 q 0.61394,0 0.61394,-0.54572 v -9.75483 q 0,-0.54573 -0.61394,-0.54573 h -0.409294 v -0.40929 h 3.206134 v 0.40929 h -0.47751 q -0.61394,0 -0.61394,0.54573 z"
           inkscape:connector-curvature="0" />
        <path
           id="path11464"
           style="font-style:normal;font-variant:normal;font-weight:normal;font-stretch:normal;font-family:'MS Mincho';-inkscape-font-specification:'MS Mincho';fill:#c83771;fill-opacity:1;stroke-width:0.43657985"
           d="m 99.066255,210.8752 v -0.40929 h 5.457245 v 0.40929 h -1.56896 q -0.61394,0 -0.61394,0.54573 v 9.75483 q 0,0.54572 0.61394,0.54572 h 1.56896 v 0.4093 h -5.457245 v -0.4093 h 1.568955 q 0.61394,0 0.61394,-0.54572 v -9.75483 q 0,-0.54573 -0.61394,-0.54573 z"
           inkscape:connector-curvature="0" />
        <path
           id="path11466"
           style="font-style:normal;font-variant:normal;font-weight:normal;font-stretch:normal;font-family:'MS Mincho';-inkscape-font-specification:'MS Mincho';fill:#c83771;fill-opacity:1;stroke-width:0.43657985"
           d="m 108.75287,216.67353 v 4.50223 q 0,0.54572 0.61394,0.54572 h 0.47751 v 0.4093 h -3.27435 v -0.4093 h 0.47751 q 0.61394,0 0.61394,-0.54572 v -9.75483 q 0,-0.54573 -0.61394,-0.54573 h -0.40929 v -0.40929 h 4.02472 q 1.7736,0 2.72862,0.8868 0.81859,0.81859 0.81859,2.11469 0,1.36431 -0.81859,2.1829 -1.02323,1.02323 -2.52397,1.02323 z m 1.70539,-0.40929 q 1.15967,0 1.84182,-0.68216 0.75037,-0.68216 0.75037,-2.04647 0,-1.36431 -0.75037,-2.04647 -0.61394,-0.61394 -1.97825,-0.61394 h -0.95502 q -0.61394,0 -0.61394,0.54573 v 4.84331 z"
           inkscape:connector-curvature="0" />
        <path
           id="path11468"
           style="font-style:normal;font-variant:normal;font-weight:normal;font-stretch:normal;font-family:'MS Mincho';-inkscape-font-specification:'MS Mincho';fill:#c83771;fill-opacity:1;stroke-width:0.43657985"
           d="m 121.64562,219.12929 q 0,-0.61394 -0.61394,-1.22788 -0.95502,-0.95502 -2.38755,-1.56896 -1.43252,-0.61394 -2.11468,-1.15966 -0.75037,-0.61394 -0.75037,-1.84182 0,-1.15967 0.8868,-2.04647 0.81859,-0.81859 2.38755,-0.81859 0.75037,0 1.36431,0.27286 0.47751,0.20465 0.81859,0.20465 0.34108,0 0.68215,-0.47751 l 0.27287,2.79684 -0.4093,0.20465 q -0.54572,-1.43253 -1.09145,-1.91004 -0.68215,-0.61394 -1.7736,-0.61394 -1.09145,0 -1.56896,0.47751 -0.68216,0.61394 -0.68216,1.63717 0,0.95502 0.68216,1.43253 0.34108,0.20465 1.84182,0.8868 1.70539,0.75038 2.66041,1.77361 0.75037,0.81859 0.75037,1.97825 0,1.22788 -0.8868,2.11469 -0.88681,0.8868 -2.45576,0.8868 -0.81859,0 -1.43253,-0.27286 -0.47751,-0.20465 -0.75037,-0.20465 -0.4093,0 -0.88681,0.47751 l -0.54572,-3.34257 0.40929,-0.20464 q 0.54573,1.84182 1.09145,2.31933 0.81859,0.75037 2.1829,0.75037 1.09145,0 1.63718,-0.54573 0.68215,-0.61394 0.68215,-1.97825 z"
           inkscape:connector-curvature="0" />
        <path
           id="path11470"
           style="font-style:normal;font-variant:normal;font-weight:normal;font-stretch:normal;font-family:'MS Mincho';-inkscape-font-specification:'MS Mincho';fill:#c83771;fill-opacity:1;stroke-width:0.43657985"
           d="m 124.1696,210.8752 v -0.40929 h 6.68512 l 0.75038,2.31933 -0.34108,0.13643 q -1.09145,-2.04647 -2.52398,-2.04647 H 126.83 q -0.61394,0 -0.61394,0.54573 v 4.22937 h 1.97826 q 1.29609,0 1.29609,-1.36432 v -0.40929 h 0.4093 v 4.02472 h -0.4093 v -0.27286 q 0,-1.56896 -1.29609,-1.56896 h -1.97826 v 5.11617 q 0,0.54572 0.61394,0.54572 h 1.77361 q 1.97825,0 2.86505,-2.38754 l 0.34108,0.13643 -0.75037,2.66041 h -6.95799 v -0.4093 h 0.40929 q 0.61394,0 0.61394,-0.54572 v -9.75483 q 0,-0.54573 -0.61394,-0.54573 z"
           inkscape:connector-curvature="0" />
      </g>
    </g>
  </g>
</svg>
