<?xml version="1.0" encoding="UTF-8" standalone="no"?>
<!-- Created with Inkscape (http://www.inkscape.org/) -->

<svg
   xmlns:dc="http://purl.org/dc/elements/1.1/"
   xmlns:cc="http://creativecommons.org/ns#"
   xmlns:rdf="http://www.w3.org/1999/02/22-rdf-syntax-ns#"
   xmlns:svg="http://www.w3.org/2000/svg"
   xmlns="http://www.w3.org/2000/svg"
   xmlns:xlink="http://www.w3.org/1999/xlink"
   xmlns:sodipodi="http://sodipodi.sourceforge.net/DTD/sodipodi-0.dtd"
   xmlns:inkscape="http://www.inkscape.org/namespaces/inkscape"
   width="900"
   height="650"
   viewBox="0 0 238.12499 171.97917"
   version="1.1"
   id="svg8"
   inkscape:version="0.92.1 r15371"
   sodipodi:docname="GOOD FOR HEALT.svg">
  <defs
     id="defs2">
    <linearGradient
       id="linearGradient4583"
       inkscape:collect="always">
      <stop
         id="stop4579"
         offset="0"
         style="stop-color:#80004e;stop-opacity:1" />
      <stop
         id="stop4581"
         offset="1"
         style="stop-color:#ff5558;stop-opacity:1" />
    </linearGradient>
    <linearGradient
       inkscape:collect="always"
       id="linearGradient4574">
      <stop
         style="stop-color:#ff0000;stop-opacity:1;"
         offset="0"
         id="stop4570" />
      <stop
         style="stop-color:#eeaaf7;stop-opacity:1"
         offset="1"
         id="stop4572" />
    </linearGradient>
    <linearGradient
       inkscape:collect="always"
       id="linearGradient4566">
      <stop
         style="stop-color:#00d7a9;stop-opacity:1"
         offset="0"
         id="stop4562" />
      <stop
         style="stop-color:#6a8aad;stop-opacity:1"
         offset="1"
         id="stop4564" />
    </linearGradient>
    <linearGradient
       id="linearGradient5068"
       inkscape:collect="always">
      <stop
         id="stop5064"
         offset="0"
         style="stop-color:#fffbfb;stop-opacity:1" />
      <stop
         id="stop5066"
         offset="1"
         style="stop-color:#fffdfd;stop-opacity:0" />
    </linearGradient>
    <linearGradient
       inkscape:collect="always"
       id="linearGradient5036">
      <stop
         style="stop-color:#0b0b0b;stop-opacity:1"
         offset="0"
         id="stop5032" />
      <stop
         style="stop-color:#070707;stop-opacity:0"
         offset="1"
         id="stop5034" />
    </linearGradient>
    <linearGradient
       id="linearGradient5011"
       inkscape:collect="always">
      <stop
         id="stop5007"
         offset="0"
         style="stop-color:#c43084;stop-opacity:1" />
      <stop
         id="stop5009"
         offset="1"
         style="stop-color:#87727e;stop-opacity:0" />
    </linearGradient>
    <linearGradient
       inkscape:collect="always"
       id="linearGradient4979">
      <stop
         style="stop-color:#00ffa9;stop-opacity:1"
         offset="0"
         id="stop4975" />
      <stop
         style="stop-color:#ffffff;stop-opacity:0"
         offset="1"
         id="stop4977" />
    </linearGradient>
    <linearGradient
       inkscape:collect="always"
       id="linearGradient4628">
      <stop
         style="stop-color:#ffffff;stop-opacity:1"
         offset="0"
         id="stop4624" />
      <stop
         style="stop-color:#5500d4;stop-opacity:0;"
         offset="1"
         id="stop4626" />
    </linearGradient>
    <linearGradient
       inkscape:collect="always"
       id="linearGradient4620">
      <stop
         style="stop-color:#ffffff;stop-opacity:1"
         offset="0"
         id="stop4616" />
      <stop
         style="stop-color:#ff0000;stop-opacity:0;"
         offset="1"
         id="stop4618" />
    </linearGradient>
    <linearGradient
       inkscape:collect="always"
       xlink:href="#linearGradient4620"
       id="linearGradient4622"
       x1="46.553905"
       y1="139.3185"
       x2="75.115723"
       y2="139.3185"
       gradientUnits="userSpaceOnUse"
       gradientTransform="matrix(1.2377246,0,0,1.2377246,-18.328573,9.4007666)" />
    <linearGradient
       inkscape:collect="always"
       xlink:href="#linearGradient4628"
       id="linearGradient4630"
       x1="61.817677"
       y1="126.5917"
       x2="85.252357"
       y2="126.5917"
       gradientUnits="userSpaceOnUse"
       gradientTransform="matrix(1.2377246,0,0,1.2377246,-18.328573,9.4007666)" />
    <circle
       r="47.306705"
       cy="157.25179"
       cx="106.44127"
       id="path4639-9"
       style="opacity:1;fill:#ff2a2a;fill-opacity:1;fill-rule:nonzero;stroke:none;stroke-width:1;stroke-linecap:round;stroke-linejoin:miter;stroke-miterlimit:4;stroke-dasharray:none;stroke-opacity:1;paint-order:stroke markers fill" />
    <linearGradient
       inkscape:collect="always"
       xlink:href="#linearGradient4979"
       id="linearGradient4981"
       x1="129.08456"
       y1="124.27786"
       x2="120.32201"
       y2="133.04042"
       gradientUnits="userSpaceOnUse"
       gradientTransform="translate(0.5429004,36.726108)" />
    <linearGradient
       inkscape:collect="always"
       xlink:href="#linearGradient5011"
       id="linearGradient4981-2"
       x1="109.16905"
       y1="144.4071"
       x2="115.94859"
       y2="137.41379"
       gradientUnits="userSpaceOnUse"
       gradientTransform="translate(-26.835729,64.104594)" />
    <linearGradient
       inkscape:collect="always"
       xlink:href="#linearGradient5036"
       id="linearGradient5038"
       x1="946.17053"
       y1="668.50159"
       x2="837.23682"
       y2="559.56915"
       gradientUnits="userSpaceOnUse"
       gradientTransform="matrix(0.26458333,0,0,0.26458333,-56.762516,36.198931)" />
    <linearGradient
       inkscape:collect="always"
       xlink:href="#linearGradient5068"
       id="linearGradient5038-2"
       x1="728.30298"
       y1="450.63675"
       x2="837.23682"
       y2="559.56915"
       gradientUnits="userSpaceOnUse"
       gradientTransform="matrix(0.26458333,0,0,0.26458333,-57.277786,36.303099)" />
    <linearGradient
       inkscape:collect="always"
       xlink:href="#linearGradient4583"
       id="linearGradient5181"
       x1="-106.39459"
       y1="229.52557"
       x2="-106.39459"
       y2="56.345879"
       gradientUnits="userSpaceOnUse"
       gradientTransform="matrix(1.3750169,0,0,0.99306777,27.231851,69.065541)" />
    <linearGradient
       inkscape:collect="always"
       xlink:href="#linearGradient4566"
       id="linearGradient4568"
       x1="95.222755"
       y1="195.41005"
       x2="135.80684"
       y2="154.82642"
       gradientUnits="userSpaceOnUse" />
    <linearGradient
       inkscape:collect="always"
       xlink:href="#linearGradient4574"
       id="linearGradient4576"
       x1="128.12061"
       y1="162.5119"
       x2="76.982346"
       y2="213.65057"
       gradientUnits="userSpaceOnUse" />
    <linearGradient
       inkscape:collect="always"
       xlink:href="#linearGradient4620"
       id="linearGradient4642"
       gradientUnits="userSpaceOnUse"
       gradientTransform="matrix(1.2377246,0,0,1.2377246,-18.328573,9.4007666)"
       x1="46.553905"
       y1="139.3185"
       x2="75.115723"
       y2="139.3185" />
  </defs>
  <sodipodi:namedview
     id="base"
     pagecolor="#ffffff"
     bordercolor="#666666"
     borderopacity="1.0"
     inkscape:pageopacity="0.0"
     inkscape:pageshadow="2"
     inkscape:zoom="0.5"
     inkscape:cx="540.47057"
     inkscape:cy="281.29795"
     inkscape:document-units="mm"
     inkscape:current-layer="layer1"
     showgrid="false"
     inkscape:snap-bbox="true"
     inkscape:snap-bbox-edge-midpoints="true"
     inkscape:snap-intersection-paths="true"
     inkscape:bbox-nodes="true"
     showguides="true"
     inkscape:guide-bbox="true"
     inkscape:snap-object-midpoints="true"
     inkscape:snap-global="true"
     inkscape:window-width="1366"
     inkscape:window-height="706"
     inkscape:window-x="-8"
     inkscape:window-y="-8"
     inkscape:window-maximized="1"
     inkscape:snap-nodes="true"
     inkscape:object-paths="false"
     inkscape:snap-center="true"
     units="px"
     inkscape:snap-page="true" />
  <metadata
     id="metadata5">
    <rdf:RDF>
      <cc:Work
         rdf:about="">
        <dc:format>image/svg+xml</dc:format>
        <dc:type
           rdf:resource="http://purl.org/dc/dcmitype/StillImage" />
        <dc:title></dc:title>
      </cc:Work>
    </rdf:RDF>
  </metadata>
  <g
     inkscape:label="Layer 1"
     inkscape:groupmode="layer"
     id="layer1"
     transform="translate(0,-125.02082)">
    <circle
       style="opacity:1;fill:#fffdfd;fill-opacity:0.02762433;fill-rule:nonzero;stroke:none;stroke-width:2.11666656;stroke-linecap:round;stroke-linejoin:round;stroke-miterlimit:4;stroke-dasharray:none;stroke-dashoffset:0;stroke-opacity:1;paint-order:markers fill stroke"
       id="path4639"
       cx="-188.50235"
       cy="-162.63849"
       r="52.759003"
       transform="rotate(-160.81676)" />
    <rect
       style="opacity:1;fill:url(#linearGradient5181);fill-opacity:1;fill-rule:nonzero;stroke:none;stroke-width:2.91769505;stroke-linecap:round;stroke-linejoin:miter;stroke-miterlimit:4;stroke-dasharray:none;stroke-opacity:1;paint-order:stroke markers fill"
       id="rect4552-0"
       width="238.12502"
       height="171.97917"
       x="-238.125"
       y="125.02082"
       transform="scale(-1,1)" />
    <g
       id="g4633">
      <path
         sodipodi:nodetypes="ccccc"
         inkscape:connector-curvature="0"
         id="path4624"
         d="M 0,201.91535 57.380369,214.11688 45.084383,220.382 0,205.72176 Z"
         style="fill:#fffefe;fill-opacity:1;stroke:none;stroke-width:0.26458332px;stroke-linecap:butt;stroke-linejoin:miter;stroke-opacity:1" />
      <path
         inkscape:connector-curvature="0"
         id="path4626"
         d="m 65.666032,227.06939 73.550578,23.89803 26.9439,-13.7286 -84.995782,-18.06641 z"
         style="fill:#fffefe;fill-opacity:1;stroke:none;stroke-width:0.26458332px;stroke-linecap:butt;stroke-linejoin:miter;stroke-opacity:1" />
      <path
         sodipodi:nodetypes="ccccc"
         inkscape:connector-curvature="0"
         id="path4628"
         d="m 162.00651,258.3723 76.11849,24.66884 v -30.35927 l -45.62826,-9.84511 z"
         style="fill:#fffefe;fill-opacity:1;stroke:none;stroke-width:0.26458332px;stroke-linecap:butt;stroke-linejoin:miter;stroke-opacity:1" />
    </g>
    <g
       id="g4608"
       transform="translate(-0.24992108,-0.20693279)">
      <g
         transform="matrix(0.99306777,0,0,0.99306777,13.655381,30.29902)"
         id="g4654">
        <path
           inkscape:connector-curvature="0"
           style="opacity:1;fill:url(#linearGradient4576);fill-opacity:1;fill-rule:nonzero;stroke:#ffffff;stroke-width:1.23772454;stroke-linecap:round;stroke-linejoin:miter;stroke-miterlimit:4;stroke-dasharray:none;stroke-opacity:1;paint-order:stroke markers fill"
           d="m 82.255877,185.88184 a 15.906235,15.906235 0 0 0 4.52e-4,22.49473 15.906235,15.906235 0 0 0 22.494741,4.7e-4 15.906235,15.906235 0 0 0 0.0124,-0.0132 l 22.48194,-22.482 -22.49475,-22.49474 z"
           id="path4485-6-4" />
        <path
           sodipodi:nodetypes="ccccccscccccccssscccccc"
           style="opacity:1;fill:url(#linearGradient4568);fill-opacity:1;fill-rule:nonzero;stroke:#ffffff;stroke-width:1.12957942;stroke-linecap:round;stroke-linejoin:miter;stroke-miterlimit:4;stroke-dasharray:none;stroke-opacity:1;paint-order:stroke markers fill"
           d="m 129.93009,160.70274 c 6.23297,6.2328 7.10605,15.46543 1.95006,20.6217 l -0.01,0.01 -10.14935,10.14933 c -0.32227,0.32225 -0.66038,0.62129 -1.01277,0.89658 -0.35238,0.27531 -0.71893,0.52712 -1.09799,0.75582 -0.75809,0.4574 -1.56644,0.8215 -2.41047,1.09441 -0.84401,0.2729 -1.72358,0.45457 -2.62589,0.54561 -0.9023,0.091 -1.82719,0.0918 -2.76013,0.004 -0.93294,-0.0882 -1.87429,-0.26587 -2.81025,-0.53072 -0.83795,-0.23735 -1.66764,-0.56883 -2.48705,-0.94561 -4.19885,-2.3594 -7.562036,-5.65754 -9.186984,-9.18699 -0.37678,-0.81941 -0.708443,-1.64903 -0.9456,-2.48704 -0.264867,-0.93596 -0.44249,-1.8773 -0.530723,-2.81026 -0.08823,-0.93294 -0.08736,-1.85782 0.0037,-2.76011 0.09104,-0.90231 0.27225,-1.78234 0.545162,-2.62635 0.272903,-0.84403 0.637458,-1.65193 1.094863,-2.41001 0.228694,-0.37906 0.480503,-0.74561 0.755818,-1.09799 0.273215,-0.34953 0.570182,-0.68483 0.889577,-1.00476 l 0.01795,-0.0179 10.149347,-10.14934 c 5.15626,-5.15599 14.38888,-4.28291 20.62168,1.95004 z"
           id="path4541-0"
           inkscape:connector-curvature="0" />
        <path
           sodipodi:nodetypes="cccccscccccccssscccc"
           style="opacity:1;fill:url(#linearGradient4981);fill-opacity:1;fill-rule:nonzero;stroke:none;stroke-width:1.12957942;stroke-linecap:round;stroke-linejoin:miter;stroke-miterlimit:4;stroke-dasharray:none;stroke-opacity:1;paint-order:stroke markers fill"
           d="m 129.92889,160.70204 c 6.23298,6.23282 7.10606,15.46543 1.95007,20.62171 l -0.01,0.0103 c -0.73421,0.72799 0.29289,-0.24731 -0.45893,0.34267 -0.35241,0.27529 -0.71896,0.5271 -1.098,0.75583 -0.75807,0.45742 -1.56644,0.82148 -2.41048,1.09442 -0.84399,0.27287 -1.72356,0.45456 -2.62587,0.5456 -0.90231,0.091 -1.82721,0.0918 -2.76014,0.004 -0.93294,-0.0882 -1.87429,-0.26589 -2.81024,-0.53074 -0.83796,-0.23734 -1.66765,-0.56883 -2.48705,-0.94561 -4.19886,-2.35941 -7.56206,-5.65755 -9.18701,-9.187 -0.37678,-0.81941 -0.70843,-1.64903 -0.9456,-2.48703 -0.26485,-0.93597 -0.44248,-1.87731 -0.53071,-2.81027 -0.0882,-0.93293 -0.0874,-1.85782 0.004,-2.7601 0.091,-0.90231 0.27224,-1.78236 0.54515,-2.62637 0.2729,-0.84403 0.63746,-1.65192 1.09486,-2.41001 0.22871,-0.37905 0.48051,-0.74559 0.75582,-1.09798 0.66525,-0.83058 -0.443,0.32789 0.35366,-0.46876 5.15626,-5.15599 14.38888,-4.28291 20.62167,1.95004 z"
           id="path4541-0-3"
           inkscape:connector-curvature="0" />
        <path
           sodipodi:nodetypes="ccccccccccc"
           style="opacity:1;fill:url(#linearGradient4981-2);fill-opacity:1;fill-rule:nonzero;stroke:none;stroke-width:1.12957942;stroke-linecap:round;stroke-linejoin:miter;stroke-miterlimit:4;stroke-dasharray:none;stroke-opacity:1;paint-order:stroke markers fill"
           d="m 102.55028,188.08053 c 6.23298,6.23282 7.10606,15.46543 1.95007,20.62171 l -0.01,0.0103 c -0.73421,0.72799 0.29289,-0.24731 -0.45893,0.34267 -0.35241,0.27529 -0.71896,0.5271 -1.098,0.75583 -5.105939,4.76078 -15.09605,4.03291 -19.76562,-0.60482 -3.85295,-2.95938 -5.212421,-7.18194 -5.519814,-10.80863 -0.359478,-3.44592 0.684816,-8.26106 3.928165,-11.79764 0.66525,-0.83058 -0.443,0.32789 0.35366,-0.46876 5.156257,-5.15599 14.388877,-4.28291 20.621669,1.95004 z"
           id="path4541-0-3-1"
           inkscape:connector-curvature="0" />
        <g
           id="g4582"
           transform="translate(-58.374648,1.4587721e-5)">
          <path
             sodipodi:nodetypes="cccccccccccccccc"
             inkscape:connector-curvature="0"
             id="path4485-6-4-8"
             d="m 176.16229,155.4299 c -3.22379,0.004 -6.2599,1.10529 -8.51576,3.36103 l -10.14925,10.14924 -0.0181,0.0181 c -0.24486,0.24526 -0.47199,0.502 -0.68988,0.76481 l -16.19643,16.19643 c -6.21158,6.2119 -6.21135,16.28313 5.2e-4,22.49475 6.01406,6.31506 15.72096,6.53592 22.49475,5.1e-4 l 0.0124,-0.0129 16.17628,-16.17679 c 0.26837,-0.22183 0.53077,-0.45329 0.78082,-0.70331 l 10.14925,-10.14925 0.0103,-0.0103 c 5.15599,-5.15627 4.28271,-14.38868 -1.95027,-20.62148 -3.50583,-3.50552 -7.96013,-5.31564 -12.10467,-5.31078 z"
             style="opacity:1;fill:url(#linearGradient5038);fill-opacity:1;fill-rule:nonzero;stroke:none;stroke-width:1.23772454;stroke-linecap:round;stroke-linejoin:miter;stroke-miterlimit:4;stroke-dasharray:none;stroke-opacity:1;paint-order:stroke markers fill" />
          <path
             sodipodi:nodetypes="cccccccccccccccc"
             inkscape:connector-curvature="0"
             id="path4485-6-4-8-2"
             d="m 175.64702,155.53405 c -3.22379,0.004 -6.2599,1.10529 -8.51576,3.36103 l -10.14924,10.14925 -0.0181,0.0181 c -0.24485,0.24526 -0.47198,0.502 -0.68987,0.76481 l -16.19645,16.19643 c -6.21158,6.21191 -6.21134,16.28313 5.3e-4,22.49475 6.21162,6.21189 16.28286,6.21212 22.49475,5.3e-4 l 0.0124,-0.0129 16.17628,-16.17678 c 0.26838,-0.22184 0.53078,-0.45329 0.78082,-0.70332 l 10.14924,-10.14925 0.0103,-0.0103 c 5.15598,-5.15628 2.12011,-16.86559 -2.99367,-21.97923 -3.50583,-3.50551 -6.91673,-3.9579 -11.06127,-3.95303 z"
             style="opacity:1;fill:url(#linearGradient5038-2);fill-opacity:1;fill-rule:nonzero;stroke:none;stroke-width:1.23772466;stroke-linecap:round;stroke-linejoin:miter;stroke-miterlimit:4;stroke-dasharray:none;stroke-opacity:1;paint-order:stroke markers fill" />
        </g>
        <g
           id="g4640"
           transform="translate(37.972768,-0.90416074)">
          <path
             id="path4485-6-4-4"
             d="m 49.131277,186.65758 a 2.1340126,15.906235 45 0 0 -9.73814,12.75614 2.1340126,15.906235 45 0 0 12.75621,-9.73823 2.1340126,15.906235 45 0 0 0.0128,-0.0129 l 22.481892,-22.48191 -3.01794,-3.01793 z"
             style="opacity:1;fill:url(#linearGradient4642);fill-opacity:1;fill-rule:nonzero;stroke:none;stroke-width:0.4533554;stroke-linecap:round;stroke-linejoin:miter;stroke-miterlimit:4;stroke-dasharray:none;stroke-opacity:1;paint-order:stroke markers fill"
             inkscape:connector-curvature="0" />
          <path
             inkscape:connector-curvature="0"
             id="path4541-0-6"
             d="m 87.066919,151.73992 c 0.83631,0.83614 -2.66558,5.69381 -7.82169,10.84996 l -0.01,0.01 -10.14934,10.14933 c -0.32226,0.32225 -0.64345,0.63822 -0.96247,0.94688 -0.31901,0.30868 -0.63589,0.61017 -0.94985,0.90395 -0.62793,0.58759 -1.24394,1.14401 -1.84072,1.66416 -0.59677,0.52015 -1.17421,1.00396 -1.7253,1.44621 -0.55106,0.44221 -1.07593,0.84311 -1.56683,1.19701 -0.49085,0.35386 -0.947767,0.66065 -1.363874,0.91566 -0.37243,0.22816 -0.699427,0.39938 -1.000987,0.54045 -1.359671,0.4798 -1.839041,0.0655 -1.232551,-1.23254 0.14108,-0.30154 0.31216,-0.62843 0.54045,-1.00098 0.255004,-0.4161 0.561804,-0.87302 0.915651,-1.36388 0.353847,-0.49085 0.754737,-1.01571 1.197004,-1.56682 0.442217,-0.55107 0.925987,-1.12859 1.446157,-1.72536 0.52015,-0.59678 1.07663,-1.21275 1.66421,-1.84066 0.2938,-0.31396 0.59527,-0.63084 0.90394,-0.94985 0.30627,-0.3165 0.61982,-0.6352 0.93945,-0.95491 l 0.0181,-0.018 10.14934,-10.14934 c 5.15615,-5.15611 10.01383,-8.65798 10.84996,-7.82169 z"
             style="opacity:1;fill:url(#linearGradient4630);fill-opacity:1;fill-rule:nonzero;stroke:none;stroke-width:0.41374385;stroke-linecap:round;stroke-linejoin:miter;stroke-miterlimit:4;stroke-dasharray:none;stroke-opacity:1;paint-order:stroke markers fill"
             sodipodi:nodetypes="ccccccscccccccssscccccc" />
        </g>
      </g>
    </g>
    <text
       xml:space="preserve"
       style="font-style:normal;font-weight:normal;font-size:21.01202011px;line-height:1.25;font-family:sans-serif;letter-spacing:0px;word-spacing:0px;fill:#000000;fill-opacity:1;stroke:none;stroke-width:0.87550086"
       id="text4637"
       transform="translate(-6.2769714,-4.762499)"><textPath
         xlink:href="#path4639"
         id="textPath4641"><tspan
   style="font-style:normal;font-variant:normal;font-weight:normal;font-stretch:normal;font-family:'Adobe Naskh';-inkscape-font-specification:'Adobe Naskh';fill:#fffdfd;fill-opacity:1;stroke-width:0.87550086"
   id="tspan4635">Good for your health</tspan></textPath></text>
  </g>
</svg>
